<?xml version="1.0" standalone="no"?><!DOCTYPE svg PUBLIC "-//W3C//DTD SVG 1.1//EN" "http://www.w3.org/Graphics/SVG/1.1/DTD/svg11.dtd"><svg t="1621321852961" class="icon" viewBox="0 0 1024 1024" version="1.1" xmlns="http://www.w3.org/2000/svg" p-id="7025" xmlns:xlink="http://www.w3.org/1999/xlink" width="128" height="128"><defs><style type="text/css"></style></defs><path d="M924 0H100C45 0 0 45 0 100v824c0 55 45 100 100 100h824c55 0 100-45 100-100V100c0-55-45-100-100-100z m55 924c0 14.58-5.75 28.36-16.19 38.81S938.58 979 924 979H100c-14.58 0-28.36-5.75-38.81-16.19S45 938.58 45 924V315h934v609zM45 270V100c0-14.58 5.75-28.36 16.19-38.81C71.64 50.75 85.42 45 100 45h824c14.58 0 28.36 5.75 38.81 16.19C973.25 71.64 979 85.42 979 100v170H45z" fill="#2c2c2c" p-id="7026" data-spm-anchor-id="a313x.7781069.0.i24" class="selected"></path><path d="M157.5 157.5m-22.5 0a22.5 22.5 0 1 0 45 0 22.5 22.5 0 1 0-45 0Z" fill="#d81e06" p-id="7027" data-spm-anchor-id="a313x.7781069.0.i15" class=""></path><path d="M292.5 157.5m-22.5 0a22.5 22.5 0 1 0 45 0 22.5 22.5 0 1 0-45 0Z" fill="#f4ea2a" p-id="7028" data-spm-anchor-id="a313x.7781069.0.i18" class=""></path><path d="M427.5 157.5m-22.5 0a22.5 22.5 0 1 0 45 0 22.5 22.5 0 1 0-45 0Z" fill="#0e932e" p-id="7029" data-spm-anchor-id="a313x.7781069.0.i19" class=""></path><path d="M124.76 665.77c0-61 44.06-96.75 96.53-96.75 26.38 0 47.42 11.25 60.89 23.75l-21.89 23.5c-10.38-9-22.45-15.5-38.16-15.5-31.43 0-55 24-55 63.75 0 40.25 21.33 64.5 54.16 64.5 17.68 0 31.71-7.5 42.93-18.25l21.89 23c-17.12 17.75-39.29 27.25-66.22 27.25-52.47 0-95.13-33.5-95.13-95.25zM367.49 556.27h27.5L325.4 803.02h-27.5l69.59-246.75zM414.63 665.77c0-61 44.06-96.75 96.53-96.75 26.38 0 47.42 11.25 60.89 23.75l-21.89 23.5c-10.38-9-22.45-15.5-38.16-15.5-31.43 0-55 24-55 63.75 0 40.25 21.33 64.5 54.16 64.5 17.68 0 31.71-7.5 42.93-18.25l21.89 23c-17.12 17.75-39.29 27.25-66.22 27.25-52.48 0-95.13-33.5-95.13-95.25zM651.18 677.02H594.5v-26h56.68v-53.25h30.59v53.25h56.68v26h-56.68v53.25h-30.59v-53.25zM816.46 677.02h-56.68v-26h56.68v-53.25h30.59v53.25h56.68v26h-56.68v53.25h-30.59v-53.25z" fill="#2c2c2c" p-id="7030" data-spm-anchor-id="a313x.7781069.0.i23" class="selected"></path></svg>

