<?xml version="1.0" standalone="no"?><!DOCTYPE svg PUBLIC "-//W3C//DTD SVG 1.1//EN" "http://www.w3.org/Graphics/SVG/1.1/DTD/svg11.dtd"><svg t="1621103933649" class="icon" viewBox="0 0 1024 1024" version="1.1" xmlns="http://www.w3.org/2000/svg" p-id="20106" xmlns:xlink="http://www.w3.org/1999/xlink" width="128" height="128"><defs><style type="text/css"></style></defs><path d="M512 1024C229.2224 1024 0 794.7776 0 512S229.2224 0 512 0s512 229.2224 512 512-229.2224 512-512 512z m0-947.2C271.6416 76.8 76.8 271.6416 76.8 512s194.8416 435.2 435.2 435.2 435.2-194.8416 435.2-435.2S752.3584 76.8 512 76.8z" fill="#0061b0" p-id="20107"></path><path d="M512 1024c-127.2576 0-230.4-223.488-230.4-499.2S384.7424 25.6 512 25.6s230.4 223.488 230.4 499.2S639.2576 1024 512 1024z m0-921.6c-84.8384 0-153.6 189.1072-153.6 422.4S427.1616 947.2 512 947.2s153.6-189.1072 153.6-422.4S596.8384 102.4 512 102.4z" fill="#0061b0" p-id="20108"></path><path d="M524.8 768C249.088 768 25.6 664.8576 25.6 537.6s223.488-230.4 499.2-230.4S1024 410.3424 1024 537.6s-223.488 230.4-499.2 230.4z m0-384C291.5072 384 102.4 452.7616 102.4 537.6s189.1072 153.6 422.4 153.6S947.2 622.4384 947.2 537.6s-189.1072-153.6-422.4-153.6z" fill="#0061b0" p-id="20109"></path></svg>