<?xml version="1.0" standalone="no"?><!DOCTYPE svg PUBLIC "-//W3C//DTD SVG 1.1//EN" "http://www.w3.org/Graphics/SVG/1.1/DTD/svg11.dtd"><svg t="1621120905825" class="icon" viewBox="0 0 1024 1024" version="1.1" xmlns="http://www.w3.org/2000/svg" p-id="5565" width="128" height="128"><path d="M510.922416 530.846257a68.957939 68.957939 0 1 0 0 137.915877 68.957939 68.957939 0 0 0 0-137.915877M87.771429 176.653208l73.137207 71.047573a496.288195 496.288195 0 0 1 702.117194 0l73.137208-71.047573a597.635468 597.635468 0 0 0-848.391609 0" fill="#1296db" p-id="5566"></path><path d="M218.373585 305.16573l71.047573 73.137208a313.445176 313.445176 0 0 1 445.09215 0l71.047573-73.137208a414.792449 414.792449 0 0 0-588.232113 0" fill="#1296db" p-id="5567"></path><path d="M346.886107 434.72307l71.047573 72.09239a131.646974 131.646974 0 0 1 188.067106 0l71.047573-72.09239a232.994247 232.994247 0 0 0-330.162252 0" fill="#1296db" p-id="5568"></path><path d="M765.857825 414.871542a315.53481 315.53481 0 1 1-508.826002 0l-72.09239-73.137208a416.882084 416.882084 0 1 0 653.010783 0z" fill="#1296db" p-id="5569"></path></svg>
