<?xml version="1.0" standalone="no"?><!DOCTYPE svg PUBLIC "-//W3C//DTD SVG 1.1//EN" "http://www.w3.org/Graphics/SVG/1.1/DTD/svg11.dtd"><svg t="1629388091042" class="icon" viewBox="0 0 1024 1024" version="1.1" xmlns="http://www.w3.org/2000/svg" p-id="3951" xmlns:xlink="http://www.w3.org/1999/xlink" width="200" height="200"><defs><style type="text/css"></style></defs><path d="M72.335145 72.335145h879.509202v879.509202h-879.509202z" fill="#D8D8DB" p-id="3952"></path><path d="M35.647046 112.200245L911.817704 35.557301l76.642945 876.152708-876.152709 76.642945z" fill="#D8D8DB" p-id="3953"></path><path d="M2.638528 155.296196L868.79355 2.566731 1021.523015 868.739702 155.367993 1021.451218z" fill="#D8D8DB" p-id="3954"></path><path d="M53.578265 190.979141l779.53234-137.454724 137.454724 779.53234-779.53234 137.454724z" fill="#EFEFEF" p-id="3955"></path><path d="M464.703944 769.301315c74.848028-17.949167 77.719895-31.770026 66.770903-89.745837l-69.822262-369.393865-46.847326 8.795092c-98.899912 17.949167-105.541104 37.154777-113.259247 120.797896l-12.025942 2.1539c-3.948817-45.411394-10.231025-91.002279-16.692726-133.721297l12.205434-2.1539a33.923926 33.923926 0 0 0 19.564593 12.743909 75.924978 75.924978 0 0 0 24.590359-2.333392l305.135846-57.437335a35.898335 35.898335 0 0 0 32.129009-24.949343l12.923401-1.615425a1164.182997 1164.182997 0 0 0 30.154601 127.080105l-12.205434 5.38475c-34.28291-81.848203-64.975986-87.053462-129.234005-74.848028l-67.129886 12.743909 69.822261 370.829798c10.948992 57.437336 17.949167 69.283786 97.822963 58.155303l1.974408 10.590009L466.678352 779.891323z" p-id="3956"></path></svg>
