<?xml version="1.0" standalone="no"?><!DOCTYPE svg PUBLIC "-//W3C//DTD SVG 1.1//EN" "http://www.w3.org/Graphics/SVG/1.1/DTD/svg11.dtd"><svg t="1621103805106" class="icon" viewBox="0 0 1280 1024" version="1.1" xmlns="http://www.w3.org/2000/svg" p-id="13683" xmlns:xlink="http://www.w3.org/1999/xlink" width="160" height="128"><defs><style type="text/css"></style></defs><path d="M1001.728 597.034667c-22.101333 0-44.288-21.845333-44.288-44.458667 0-21.845333 22.101333-44.458667 44.288-44.458667 33.792 0 55.808 21.930667 55.808 44.458667 0 22.613333-22.016 44.458667-55.808 44.458667z m-244.821333 0c-22.016 0-44.885333-21.845333-44.885334-44.458667 0-21.845333 22.869333-44.458667 44.885334-44.458667 33.792 0 55.808 21.930667 55.808 44.458667 0 22.613333-22.016 44.458667-55.808 44.458667z m501.248 55.381333c0-176.469333-177.92-320.682667-378.624-320.682667-211.541333 0-378.368 144.213333-378.368 320.682667 0 177.152 166.826667 320.768 378.368 320.768 44.288 0 89.002667-10.922667 133.802666-21.930667l122.026667 66.389334-33.706667-110.165334c89.685333-67.584 156.501333-155.904 156.501334-255.061333zM300.458667 299.050667c-33.024 0-66.816-21.930667-66.816-55.466667S267.434667 188.16 300.458667 188.16c33.109333 0 55.893333 21.845333 55.893333 55.466667 0 32.768-22.101333 55.381333-55.893333 55.381333z m311.637333-110.848c33.792 0 55.808 21.845333 55.808 55.466666 0 32.768-22.016 55.381333-55.808 55.381334-33.109333 0-66.901333-21.930667-66.901333-55.466667s33.792-55.381333 66.901333-55.381333z m239.445333 119.722666c14.336 0 28.672 1.28 42.922667 2.56-38.314667-177.664-230.4-310.528-449.194667-310.528C200.533333 0.853333 0 166.272 0 376.277333c0 121.088 66.816 220.928 177.92 298.24l-44.885333 132.608 155.818666-77.226666c55.893333 10.922667 100.693333 21.845333 155.818667 21.845333 14.336 0 27.904-0.597333 41.472-1.877333a338.901333 338.901333 0 0 1-13.568-92.842667c0.682667-192.512 167.509333-349.013333 379.050667-349.013333l-0.085334-0.085334z" fill="#09BB07" p-id="13684"></path></svg>