<svg t="1646651397725" class="icon" viewBox="0 0 1024 1024" version="1.1" xmlns="http://www.w3.org/2000/svg" p-id="9418" width="128" height="128"><path d="M409.2 480.9l-75.9-31.2c-46.7-19.2-100.5-2.4-127.9 40.1L99.2 654.6c-9.2 14.3-3.8 33.5 11.6 40.8 10.8 5.1 23.6 2.9 32.1-5.6l5.7-5.7-0.2 1.3c-2.7 14.6 6.4 28.9 20.8 32.7 13.3 3.5 27.3-0.7 36.5-10.9l7.4-8.2-1.1 6.3c-2.2 13.2 6.1 25.9 19.1 29.2 10.1 2.5 20.7-1.3 26.9-9.6l35.9-48.3c12.1-16.3 26.9-30.4 43.8-41.7l90.7-60.8c10.5-7 15.1-20.2 11.1-32.2l-14.2-43.6c-2.5-7.9-8.4-14.3-16.1-17.4zM616.8 480.9l75.9-31.2c46.7-19.2 100.5-2.4 127.9 40.1l106.3 164.9c9.2 14.3 3.8 33.5-11.6 40.8-10.8 5.1-23.6 2.9-32.1-5.6l-5.7-5.7 0.2 1.3c2.7 14.6-6.4 28.9-20.8 32.7-13.3 3.5-27.3-0.7-36.5-10.9L813 699l1.1 6.3c2.2 13.2-6.1 25.9-19.1 29.2-10.1 2.5-20.7-1.3-26.9-9.6l-35.9-48.3c-12.1-16.3-26.9-30.4-43.8-41.7L597.6 574c-10.5-7-15.1-20.2-11.1-32.2l14.2-43.6c2.6-7.8 8.5-14.2 16.1-17.3z" fill="#FFBA3B" p-id="9419"></path><path d="M642.3 303.6C608 331 538.9 333.8 513 333.8c-25.9 0-94.9-2.8-129.3-30.2-66.7 45.5-111 124.9-111 215.5V833.5c21 0 42.1-6.8 60-20.6l0.4-0.3c8.5-6.5 17.7-11.3 27.2-14.8V502.9h66.6v295.4c9.1 3.4 17.9 8 26 14.2l0.3 0.3c35.8 27.5 84.1 27.4 119.9-0.1 8.1-6.2 16.9-10.9 26-14.3V502.9h66.6v294.9c9.6 3.4 18.8 8.3 27.3 14.8l0.3 0.3c17.9 13.7 38.9 20.6 60 20.6V519.1c0-90.6-44.3-170-111-215.5z" fill="#FE506B" p-id="9420"></path><path d="M548.8 604.7c-10.7 0-19.3-8.7-19.3-19.3 0-9.1-7.4-16.5-16.5-16.5s-16.5 7.4-16.5 16.5c0 10.7-8.7 19.3-19.3 19.3s-19.3-8.7-19.3-19.3c0-30.4 24.7-55.1 55.1-55.1 30.4 0 55.1 24.7 55.1 55.1 0.1 10.6-8.6 19.3-19.3 19.3z" fill="#8F3694" p-id="9421"></path><path d="M599.1 502.9v295.6c21.5-8.1 45-8.3 66.6-0.6v-295h-66.6zM360.4 502.9v294.9c21.6-7.7 45-7.5 66.6 0.6V502.9h-66.6z" fill="#00A9DC" p-id="9422"></path><path d="M663.9 520.1h-63c-10.6 0-19.3-8.7-19.3-19.3 0-10.6 8.7-19.3 19.3-19.3h63c10.6 0 19.3 8.7 19.3 19.3 0 10.6-8.7 19.3-19.3 19.3zM425.2 520.1h-63c-10.6 0-19.3-8.7-19.3-19.3 0-10.6 8.7-19.3 19.3-19.3h63c10.6 0 19.3 8.7 19.3 19.3 0 10.6-8.7 19.3-19.3 19.3z" fill="#8F3694" p-id="9423"></path><path d="M419.6 283.3c20.4 8.7 54.6 14.4 93.4 14.4s73-5.7 93.4-14.4c-28.7-12.9-60.3-20-93.4-20-33.1-0.1-64.7 7.1-93.4 20z" fill="#FE506B" p-id="9424"></path><path d="M399.8 264.5c0-18.3 50.7-33.2 113.2-33.2s113.2 14.9 113.2 33.2c0 7-7.3 13.4-19.8 18.7 12.6 5.7 24.5 12.6 35.9 20.4 12.1-9.7 20-22.3 20-39.1 0-64.3-114.3-69.3-149.3-69.3-35 0-149.3 5-149.3 69.3 0 16.8 7.9 29.4 20 39.1 11.4-7.8 23.3-14.7 35.9-20.4-12.4-5.3-19.8-11.7-19.8-18.7z" fill="#FFBA3B" p-id="9425"></path><path d="M642.3 303.6c-11.4-7.8-23.3-14.7-35.9-20.4-20.4 8.7-54.6 14.4-93.4 14.4s-73-5.7-93.4-14.4c-12.6 5.7-24.5 12.6-35.9 20.4C418 331 487.1 333.8 513 333.8c25.9 0 95-2.8 129.3-30.2z" fill="#FF7C20" p-id="9426"></path></svg>
