<?xml version="1.0" standalone="no"?><!DOCTYPE svg PUBLIC "-//W3C//DTD SVG 1.1//EN" "http://www.w3.org/Graphics/SVG/1.1/DTD/svg11.dtd"><svg t="1621121102075" class="icon" viewBox="0 0 1024 1024" version="1.1" xmlns="http://www.w3.org/2000/svg" p-id="10334" width="128" height="128"><path d="M512 512m-512 0a512 512 0 1 0 1024 0 512 512 0 1 0-1024 0Z" fill="#1296db" p-id="10335" data-spm-anchor-id="a313x.7781069.0.i16" class="selected"></path><path d="M403.565714 279.369143h-60.196571v60.196571h-27.172572v-60.196571H256v-27.172572h60.196571V192h27.172572v60.196571h60.196571v27.172572z m-31.213714 292.864l-42.569143-42.569143-42.569143 42.569143-19.218285-19.218286 42.569142-42.569143-42.569142-42.569143 19.218285-19.218285 42.569143 42.569143 42.569143-42.569143 19.218286 19.218285-42.569143 42.569143 42.569143 42.569143z m237.092571-304.749714h148.114286v27.574857h-148.114286v-27.574857z m0 244.900571v-27.172571H757.028571v27.172571h-147.584z m73.782858-42.715429a15.542857 15.542857 0 1 1 15.542857-15.524571 15.524571 15.524571 0 0 1-15.597715 15.524571z m0 58.258286a15.542857 15.542857 0 1 1-15.524572 15.524572 15.524571 15.524571 0 0 1 15.469714-15.524572z" fill="#FFFFFF" p-id="10336"></path><path d="M350.354286 780.269714l-24.996572-88.448h-32.585143v131.236572h22.473143v-101.906286l-0.896 7.588571 25.088 79.707429h21.942857l25.088-81.517714-0.896-5.778286v101.906286h22.473143v-131.236572h-32.585143z m154.715428 42.788572h22.473143v-60.196572a36.790857 36.790857 0 0 0-4.553143-18.834285 29.677714 29.677714 0 0 0-13.238857-11.904 48.475429 48.475429 0 0 0-20.937143-4.114286 55.954286 55.954286 0 0 0-20.388571 3.657143 36.845714 36.845714 0 0 0-14.811429 9.984l15.341715 15.067428a30.756571 30.756571 0 0 1 9.142857-4.790857 32.914286 32.914286 0 0 1 10.368-1.700571 19.053714 19.053714 0 0 1 12.288 3.510857 12.178286 12.178286 0 0 1 4.333714 10.020571v59.392z m-26.093714 1.353143a47.542857 47.542857 0 0 0 13.037714-1.828572 26.642286 26.642286 0 0 0 10.294857-5.284571 12.672 12.672 0 0 0 4.644572-8.576l-1.828572-13.622857a7.314286 7.314286 0 0 1-4.827428 7.04 36.754286 36.754286 0 0 1-14.774857 2.267428 20.443429 20.443429 0 0 1-10.642286-2.212571 7.515429 7.515429 0 0 1-3.529143-6.820572 8.100571 8.100571 0 0 1 2.797714-6.729143 13.385143 13.385143 0 0 1 8.411429-2.212571h24.630857l-1.261714-18.870857h-23.460572a38.4 38.4 0 0 0-25.051428 6.966857 25.6 25.6 0 0 0-8.356572 20.845714 29.019429 29.019429 0 0 0 7.442286 21.796572 31.323429 31.323429 0 0 0 22.528 7.168z m117.595429-0.896h12.470857v-23.771429h-6.144a4.626286 4.626286 0 0 1-3.968-1.828571 8.795429 8.795429 0 0 1-1.353143-5.284572V702.171429h-24.740572v96.603428a26.642286 26.642286 0 0 0 5.741715 18.541714 23.241143 23.241143 0 0 0 17.993143 6.272z m-33.389715-73.033143h45.860572v-21.12H563.2v21.12z m85.942857 72.576h24.740572v-131.236572H649.142857v131.236572z m54.162286 0h24.740572V766.171429a43.556571 43.556571 0 0 0-8.118858-28.196572 27.904 27.904 0 0 0-22.930285-9.984 24.100571 24.100571 0 0 0-14.848 4.425143 34.998857 34.998857 0 0 0-10.166857 13.275429l1.828571 20.754285a14.774857 14.774857 0 0 1 3.657143-10.788571 14.134857 14.134857 0 0 1 10.605714-3.84 15.433143 15.433143 0 0 1 11.154286 3.803428 14.098286 14.098286 0 0 1 3.913143 10.642286v56.777143z" fill="#FFFFFF" p-id="10337"></path></svg>
