<?xml version="1.0" standalone="no"?><!DOCTYPE svg PUBLIC "-//W3C//DTD SVG 1.1//EN" "http://www.w3.org/Graphics/SVG/1.1/DTD/svg11.dtd"><svg t="1645863602611" class="icon" viewBox="0 0 1024 1024" version="1.1" xmlns="http://www.w3.org/2000/svg" p-id="14625" xmlns:xlink="http://www.w3.org/1999/xlink" width="128" height="128"><defs><style type="text/css"></style></defs><path d="M818.176 51.2c-10.24 0-18.432 9.216-18.432 20.48l-2.048 720.896 75.776 79.872c7.168 7.168 18.432 7.168 25.6 0l70.656-73.728c4.096-4.096 6.144-9.216 6.144-14.336L977.92 71.68c0-11.264-8.192-20.48-18.432-20.48H818.176z" fill="#66C1FF" p-id="14626"></path><path d="M966.656 150.528V80.896c0-8.192-6.144-14.336-12.288-14.336H822.272c-7.168 0-12.288 6.144-12.288 14.336v69.632h156.672z" fill="#FFE08A" p-id="14627"></path><path d="M982.016 165.888l-188.416-1.024V79.872c0-16.384 12.288-29.696 27.648-29.696h132.096c16.384 1.024 29.696 14.336 29.696 30.72l-1.024 84.992z m-157.696-31.744h126.976L952.32 81.92H825.344l-1.024 52.224z" fill="#330867" p-id="14628"></path><path d="M830.464 81.92h116.736l-2.048 698.368-58.368 60.416-58.368-60.416 2.048-698.368m-18.432-30.72c-6.144 0-12.288 6.144-12.288 13.312l-2.048 728.064 80.896 83.968c2.048 2.048 5.12 4.096 8.192 4.096 3.072 0 6.144-1.024 8.192-4.096l76.8-79.872c2.048-2.048 4.096-6.144 4.096-9.216l2.048-721.92c0-7.168-5.12-13.312-12.288-13.312l-153.6-1.024z" fill="#330867" p-id="14629"></path><path d="M893.952 910.336l67.584-112.64c4.096-6.144-1.024-14.336-8.192-14.336H819.2c-7.168 0-12.288 8.192-8.192 14.336l66.56 112.64c4.096 6.144 13.312 6.144 16.384 0z" fill="#FC6B79" p-id="14630"></path><path d="M885.76 930.816c-9.216 0-17.408-5.12-21.504-12.288l-66.56-112.64c-4.096-8.192-5.12-17.408 0-25.6 4.096-8.192 12.288-12.288 21.504-12.288h134.144c9.216 0 17.408 5.12 21.504 12.288 4.096 8.192 4.096 17.408 0 25.6l-67.584 112.64c-4.096 7.168-12.288 12.288-21.504 12.288z m-56.32-133.12l56.32 96.256 57.344-95.232-113.664-1.024z" fill="#330867" p-id="14631"></path><path d="M686.08 848.896H112.64c-33.792 0-61.44-27.648-61.44-61.44v-665.6c0-33.792 27.648-61.44 61.44-61.44h573.44c33.792 0 61.44 27.648 61.44 61.44v665.6c0 33.792-27.648 61.44-61.44 61.44z" fill="#FC6B79" p-id="14632"></path><path d="M686.08 864.256H112.64c-41.984 0-76.8-34.816-76.8-76.8v-665.6c0-41.984 34.816-76.8 76.8-76.8h573.44c41.984 0 76.8 34.816 76.8 76.8v665.6c0 41.984-34.816 76.8-76.8 76.8zM112.64 74.752c-25.6 0-46.08 20.48-46.08 46.08v665.6c0 25.6 20.48 46.08 46.08 46.08h573.44c25.6 0 46.08-20.48 46.08-46.08v-665.6c0-25.6-20.48-46.08-46.08-46.08H112.64z" fill="#330867" p-id="14633"></path><path d="M744.448 788.48H96.256c-24.576 0-44.032 19.456-44.032 44.032v44.032C52.224 902.144 71.68 921.6 96.256 921.6h650.24" fill="#DD365E" p-id="14634"></path><path d="M746.496 936.96H96.256c-32.768 0-59.392-26.624-59.392-59.392v-44.032c0-32.768 26.624-59.392 59.392-59.392h648.192v30.72H96.256c-16.384 0-28.672 13.312-28.672 28.672v44.032c0 16.384 13.312 28.672 28.672 28.672h650.24v30.72z" fill="#330867" p-id="14635"></path><path d="M156.672 65.536h142.336V194.56l-59.392-54.272c-3.072-3.072-7.168-5.12-12.288-5.12-4.096 0-9.216 2.048-12.288 5.12L156.672 194.56V65.536z" fill="#99CAFF" p-id="14636"></path><path d="M288.768 75.776v96.256L246.784 133.12c-5.12-5.12-12.288-7.168-18.432-7.168s-13.312 3.072-18.432 7.168l-41.984 37.888V75.776h120.832m13.312-20.48H154.624c-4.096 0-7.168 3.072-7.168 7.168v138.24c0 4.096 4.096 7.168 7.168 7.168 2.048 0 3.072-1.024 5.12-2.048l63.488-57.344c1.024-1.024 3.072-2.048 5.12-2.048s4.096 1.024 5.12 2.048l63.488 57.344c1.024 1.024 3.072 2.048 5.12 2.048 4.096 0 7.168-3.072 7.168-7.168V62.464c0-4.096-3.072-7.168-7.168-7.168z" fill="#330867" p-id="14637"></path><path d="M279.198018 566.440809a166.912 166.912 0 1 0 236.045094-236.053334 166.912 166.912 0 1 0-236.045094 236.053334Z" fill="#FFE08A" p-id="14638"></path><path d="M397.312 630.784c-100.352 0-182.272-81.92-182.272-182.272S296.96 266.24 397.312 266.24s182.272 81.92 182.272 182.272-81.92 182.272-182.272 182.272z m0-333.824C313.344 296.96 245.76 365.568 245.76 448.512s67.584 151.552 151.552 151.552S548.864 532.48 548.864 448.512 480.256 296.96 397.312 296.96z" fill="#330867" p-id="14639"></path><path d="M412.672 364.544L430.08 399.36c2.048 5.12 7.168 8.192 12.288 9.216l37.888 5.12c14.336 2.048 19.456 19.456 9.216 28.672l-27.648 26.624c-4.096 4.096-6.144 9.216-5.12 15.36l6.144 37.888c2.048 14.336-12.288 24.576-24.576 17.408L405.504 522.24c-5.12-3.072-11.264-3.072-15.36 0l-33.792 17.408c-12.288 6.144-26.624-4.096-24.576-17.408l6.144-37.888c1.024-5.12-1.024-11.264-5.12-15.36l-27.648-26.624c-10.24-10.24-4.096-26.624 9.216-28.672l37.888-5.12c5.12-1.024 10.24-4.096 12.288-9.216l17.408-34.816c6.144-12.288 24.576-12.288 30.72 0z" fill="#9555B5" p-id="14640"></path><path d="M347.136 557.056c-7.168 0-13.312-2.048-19.456-6.144-10.24-7.168-15.36-19.456-13.312-31.744l6.144-37.888v-1.024l-27.648-26.624c-9.216-8.192-12.288-21.504-8.192-32.768 4.096-12.288 13.312-20.48 25.6-21.504l37.888-5.12s1.024 0 1.024-1.024l17.408-34.816a31.50848 31.50848 0 0 1 57.344 0l17.408 34.816 1.024 1.024 37.888 5.12c12.288 2.048 22.528 10.24 25.6 21.504s1.024 24.576-8.192 32.768l-27.648 26.624s-1.024 1.024 0 1.024l6.144 37.888c2.048 12.288-3.072 24.576-13.312 31.744-10.24 7.168-23.552 8.192-33.792 2.048l-33.792-17.408h-1.024L360.448 552.96c-3.072 3.072-8.192 4.096-13.312 4.096z m50.176-186.368c-1.024 0-1.024 1.024-1.024 1.024L378.88 405.504c-5.12 9.216-13.312 16.384-24.576 17.408l-37.888 5.12s-1.024 0-1.024 1.024v2.048l27.648 26.624c7.168 7.168 11.264 18.432 9.216 28.672l-6.144 37.888s0 1.024 1.024 2.048 1.024 0 2.048 0l33.792-17.408c9.216-5.12 20.48-5.12 29.696 0l33.792 17.408h2.048c1.024-1.024 1.024-1.024 1.024-2.048l-6.144-37.888c-2.048-10.24 2.048-21.504 9.216-28.672l27.648-26.624s1.024-1.024 0-2.048c0-1.024-1.024-1.024-1.024-1.024l-38.912-5.12c-10.24-1.024-19.456-8.192-24.576-17.408l-17.408-34.816h-1.024z" fill="#330867" p-id="14641"></path></svg>