<svg t="1646653573024" class="icon" viewBox="0 0 1025 1024" version="1.1" xmlns="http://www.w3.org/2000/svg" p-id="13505" width="128" height="128"><path d="M932.240459 53.31355a473.226937 473.226937 0 0 1-54.722498 97.046422A512.911184 512.911184 0 0 0 514.003292 0.00048h-0.100102C231.995285 0.00048 0.002002 231.962732 0.002002 513.938706A514.16946 514.16946 0 0 0 159.651916 886.328376l18.966235 16.788026a511.510764 511.510764 0 0 0 331.058753 120.883598c268.071873 0 493.400397-209.791767 512.496764-477.25302 14.0012-130.943801-24.445792-296.520725-89.965241-493.43343z m-699.509428 835.961815a43.979603 43.979603 0 0 1-78.111219-27.74614 43.944568 43.944568 0 1 1 78.048155 27.873269l0.064065-0.100102zM930.093282 735.3923c-126.842641 168.909304-397.703343 112.008597-571.351453 120.113817 0 0-30.853291 1.889917-61.80368 6.920018 0 0 11.629795-4.904975 26.688066-10.66882 121.876605-42.387989 179.547093-50.621339 253.621218-88.651909C716.777942 692.202498 854.673793 537.006101 883.380907 375.561367c-53.153908 155.325528-214.117153 288.767863-360.855973 343.041906-100.501927 37.037563-282.071071 73.049085-282.071071 73.049085l-7.33644-3.8449c-123.638392-60.13699-127.355161-327.727374 97.298678-414.103976 98.391787-37.838375 192.522252-17.076318 298.764001-42.387989 113.450059-26.912294 244.682152-112.008597 298.091318-222.95912 59.816665 177.46398 131.776645 455.306763 2.81986 627.035927z" fill="#6DB33F" p-id="13506"></path></svg>
